<svg id="visual" viewBox="0 0 900 600" width="900" height="600" xmlns="http://www.w3.org/2000/svg" xmlns:xlink="http://www.w3.org/1999/xlink" version="1.1"><path d="M0 376L21.5 379.8C43 383.7 86 391.3 128.8 395.2C171.7 399 214.3 399 257.2 397.3C300 395.7 343 392.3 385.8 401.5C428.7 410.7 471.3 432.3 514.2 448.3C557 464.3 600 474.7 642.8 472.2C685.7 469.7 728.3 454.3 771.2 445C814 435.7 857 432.3 878.5 430.7L900 429L900 601L878.5 601C857 601 814 601 771.2 601C728.3 601 685.7 601 642.8 601C600 601 557 601 514.2 601C471.3 601 428.7 601 385.8 601C343 601 300 601 257.2 601C214.3 601 171.7 601 128.8 601C86 601 43 601 21.5 601L0 601Z" fill="#cc9b8f" stroke-linecap="round" stroke-linejoin="miter"></path></svg>