<?xml version="1.0" standalone="no"?><svg xmlns="http://www.w3.org/2000/svg" viewBox="0 0 1440 320"><path fill="#efdada" fill-opacity="1" d="M0,32L12,26.7C24,21,48,11,72,53.3C96,96,120,192,144,229.3C168,267,192,245,216,208C240,171,264,117,288,117.3C312,117,336,171,360,192C384,213,408,203,432,176C456,149,480,107,504,90.7C528,75,552,85,576,112C600,139,624,181,648,197.3C672,213,696,203,720,202.7C744,203,768,213,792,229.3C816,245,840,267,864,282.7C888,299,912,309,936,304C960,299,984,277,1008,277.3C1032,277,1056,299,1080,256C1104,213,1128,107,1152,106.7C1176,107,1200,213,1224,218.7C1248,224,1272,128,1296,117.3C1320,107,1344,181,1368,213.3C1392,245,1416,235,1428,229.3L1440,224L1440,320L1428,320C1416,320,1392,320,1368,320C1344,320,1320,320,1296,320C1272,320,1248,320,1224,320C1200,320,1176,320,1152,320C1128,320,1104,320,1080,320C1056,320,1032,320,1008,320C984,320,960,320,936,320C912,320,888,320,864,320C840,320,816,320,792,320C768,320,744,320,720,320C696,320,672,320,648,320C624,320,600,320,576,320C552,320,528,320,504,320C480,320,456,320,432,320C408,320,384,320,360,320C336,320,312,320,288,320C264,320,240,320,216,320C192,320,168,320,144,320C120,320,96,320,72,320C48,320,24,320,12,320L0,320Z"></path></svg>