<?xml version="1.0" standalone="no"?><svg xmlns="http://www.w3.org/2000/svg" viewBox="0 0 1440 320"><path fill="#efdada" fill-opacity="1" d="M0,128L8.3,122.7C16.6,117,33,107,50,117.3C66.2,128,83,160,99,186.7C115.9,213,132,235,149,250.7C165.5,267,182,277,199,277.3C215.2,277,232,267,248,240C264.8,213,281,171,298,138.7C314.5,107,331,85,348,80C364.1,75,381,85,397,101.3C413.8,117,430,139,447,165.3C463.4,192,480,224,497,208C513.1,192,530,128,546,106.7C562.8,85,579,107,596,106.7C612.4,107,629,85,646,106.7C662.1,128,679,192,695,229.3C711.7,267,728,277,745,261.3C761.4,245,778,203,794,197.3C811,192,828,224,844,245.3C860.7,267,877,277,894,256C910.3,235,927,181,943,149.3C960,117,977,107,993,101.3C1009.7,96,1026,96,1043,90.7C1059.3,85,1076,75,1092,69.3C1109,64,1126,64,1142,80C1158.6,96,1175,128,1192,122.7C1208.3,117,1225,75,1241,74.7C1257.9,75,1274,117,1291,144C1307.6,171,1324,181,1341,176C1357.2,171,1374,149,1390,122.7C1406.9,96,1423,64,1432,48L1440,32L1440,0L1431.7,0C1423.4,0,1407,0,1390,0C1373.8,0,1357,0,1341,0C1324.1,0,1308,0,1291,0C1274.5,0,1258,0,1241,0C1224.8,0,1208,0,1192,0C1175.2,0,1159,0,1142,0C1125.5,0,1109,0,1092,0C1075.9,0,1059,0,1043,0C1026.2,0,1010,0,993,0C976.6,0,960,0,943,0C926.9,0,910,0,894,0C877.2,0,861,0,844,0C827.6,0,811,0,794,0C777.9,0,761,0,745,0C728.3,0,712,0,695,0C678.6,0,662,0,646,0C629,0,612,0,596,0C579.3,0,563,0,546,0C529.7,0,513,0,497,0C480,0,463,0,447,0C430.3,0,414,0,397,0C380.7,0,364,0,348,0C331,0,314,0,298,0C281.4,0,265,0,248,0C231.7,0,215,0,199,0C182.1,0,166,0,149,0C132.4,0,116,0,99,0C82.8,0,66,0,50,0C33.1,0,17,0,8,0L0,0Z"></path></svg>